<?xml version="1.0" encoding="iso-8859-1"?>
<!-- Uploaded to: SVG Repo, www.svgrepo.com, Generator: SVG Repo Mixer Tools -->
<svg fill="#000000" height="800px" width="800px" version="1.1" id="Layer_1" xmlns="http://www.w3.org/2000/svg" xmlns:xlink="http://www.w3.org/1999/xlink" 
	 viewBox="0 0 490.101 490.101" xml:space="preserve">
<g>
	<g>
		<path d="M413.055,106.308l-69.454-69.454l-69.67,69.666l-26.453,0.04c-4.669-33.362-33.316-59.138-67.94-59.138
			c-34.696,0-63.392,25.882-67.972,59.345l-38.572,0.059V49.978L6.885,25.325L0,43.767l53.303,19.885v249.462h361.928l74.87-206.923
			L413.055,106.308z M343.601,64.7l41.65,41.649l-83.43,0.127L343.601,64.7z M179.538,67.113c23.756,0,43.583,17.008,48.028,39.476
			l-96.072,0.147C135.885,84.197,155.733,67.113,179.538,67.113z M401.413,293.421H72.995V126.517l389.019-0.596L401.413,293.421z"
			/>
	</g>
</g>
<g>
	<g>
		<path d="M320.755,352.498c-30.952,0-56.135,25.183-56.135,56.135c0,30.962,25.183,56.144,56.135,56.144
			c30.957,0,56.139-25.183,56.139-56.144C376.894,377.68,351.712,352.498,320.755,352.498z M320.755,445.084
			c-20.096,0-36.442-16.356-36.442-36.452c0-20.096,16.346-36.442,36.442-36.442c20.096,0,36.447,16.346,36.447,36.442
			C357.202,428.728,340.851,445.084,320.755,445.084z"/>
	</g>
</g>
<g>
	<g>
		<path d="M148.264,352.498c-30.957,0-56.139,25.183-56.139,56.135c0,30.962,25.183,56.144,56.139,56.144
			c30.952,0,56.135-25.183,56.135-56.144C204.399,377.68,179.216,352.498,148.264,352.498z M148.264,445.084
			c-20.096,0-36.447-16.356-36.447-36.452c0-20.096,16.351-36.442,36.447-36.442c20.096,0,36.442,16.346,36.442,36.442
			C184.707,428.728,168.361,445.084,148.264,445.084z"/>
	</g>
</g>
</svg>